<svg width="1440" height="1180" viewBox="0 0 1440 1180" fill="none" xmlns="http://www.w3.org/2000/svg">
<g clip-path="url(#clip0_7976_28607)">
<g opacity="0.5" filter="url(#filter0_f_7976_28607)">
<path fill-rule="evenodd" clip-rule="evenodd" d="M373.526 1073.74C373.526 1088.28 361.751 1100.08 347.223 1100.08C332.695 1100.08 320.921 1088.28 320.921 1073.74C320.921 1059.19 332.695 1047.39 347.223 1047.39C361.751 1047.39 373.526 1059.19 373.526 1073.74ZM347.223 1099.08C361.198 1099.08 372.526 1087.73 372.526 1073.74C372.526 1059.74 361.198 1048.39 347.223 1048.39C333.249 1048.39 321.921 1059.74 321.921 1073.74C321.921 1087.73 333.249 1099.08 347.223 1099.08Z" fill="#F7D515"/>
<path opacity="0.7" d="M77.1411 575.849C77.2055 575.675 77.452 575.675 77.5163 575.849L88.6869 606.084C88.7071 606.139 88.7502 606.182 88.805 606.203L118.994 617.391C119.168 617.455 119.168 617.702 118.994 617.766L88.805 628.954C88.7502 628.975 88.7071 629.018 88.6869 629.073L77.5163 659.308C77.452 659.482 77.2055 659.482 77.1411 659.308L65.9706 629.073C65.9504 629.018 65.9072 628.975 65.8525 628.954L35.6637 617.766C35.4897 617.702 35.4897 617.455 35.6637 617.391L65.8525 606.203C65.9072 606.182 65.9504 606.139 65.9706 606.084L77.1411 575.849Z" fill="#E8AB26"/>
<path d="M237.391 609.639C237.456 609.464 237.702 609.464 237.767 609.639L244.381 627.542C244.401 627.597 244.444 627.64 244.499 627.66L262.376 634.285C262.55 634.35 262.55 634.596 262.376 634.66L244.499 641.286C244.444 641.306 244.401 641.349 244.381 641.404L237.767 659.307C237.702 659.481 237.456 659.481 237.391 659.307L230.777 641.404C230.757 641.349 230.713 641.306 230.659 641.286L212.782 634.66C212.608 634.596 212.608 634.35 212.782 634.285L230.659 627.66C230.713 627.64 230.757 627.597 230.777 627.542L237.391 609.639Z" fill="#7D87FE"/>
<path d="M414.51 770.139C414.574 769.964 414.821 769.964 414.885 770.139L421.5 788.042C421.52 788.097 421.563 788.14 421.618 788.16L439.494 794.785C439.668 794.85 439.668 795.096 439.494 795.16L421.618 801.786C421.563 801.806 421.52 801.849 421.5 801.904L414.885 819.807C414.821 819.981 414.574 819.981 414.51 819.807L407.895 801.904C407.875 801.849 407.832 801.806 407.777 801.786L389.901 795.16C389.727 795.096 389.727 794.85 389.901 794.785L407.777 788.16C407.832 788.14 407.875 788.097 407.895 788.042L414.51 770.139Z" fill="#F7D12D"/>
<path opacity="0.5" d="M169.549 922.086C169.614 921.912 169.86 921.912 169.924 922.086L178.817 946.155C178.837 946.21 178.88 946.253 178.935 946.273L202.968 955.18C203.142 955.244 203.142 955.491 202.968 955.555L178.935 964.462C178.88 964.482 178.837 964.525 178.817 964.58L169.924 988.649C169.86 988.823 169.614 988.823 169.549 988.649L160.657 964.58C160.636 964.525 160.593 964.482 160.539 964.462L136.506 955.555C136.332 955.491 136.332 955.244 136.506 955.18L160.539 946.273C160.593 946.253 160.636 946.21 160.657 946.155L169.549 922.086Z" fill="#FE8C04"/>
<path d="M32.1943 951.883C32.2587 951.708 32.5052 951.708 32.5696 951.883L39.1841 969.786C39.2043 969.841 39.2475 969.884 39.3022 969.904L57.1786 976.529C57.3526 976.594 57.3526 976.84 57.1786 976.904L39.3022 983.53C39.2475 983.55 39.2043 983.593 39.1841 983.648L32.5696 1001.55C32.5052 1001.73 32.2587 1001.73 32.1943 1001.55L25.5798 983.648C25.5596 983.593 25.5164 983.55 25.4617 983.53L7.58533 976.904C7.41133 976.84 7.41133 976.594 7.58533 976.529L25.4617 969.904C25.5164 969.884 25.5596 969.841 25.5798 969.786L32.1943 951.883Z" fill="#7E83FB"/>
<path d="M37.0791 728C37.0791 737.331 29.5269 744.895 20.2107 744.895C10.8945 744.895 3.34229 737.331 3.34229 728C3.34229 718.67 10.8945 711.105 20.2107 711.105C29.5269 711.105 37.0791 718.67 37.0791 728Z" fill="#FA9004"/>
<path d="M18.2891 1158.21C18.2891 1162.88 14.513 1166.66 9.85487 1166.66C5.19678 1166.66 1.42065 1162.88 1.42065 1158.21C1.42065 1153.55 5.19678 1149.76 9.85487 1149.76C14.513 1149.76 18.2891 1153.55 18.2891 1158.21Z" fill="#F49004"/>
<path d="M338.789 609.131C338.789 613.796 335.013 617.578 330.355 617.578C325.697 617.578 321.921 613.796 321.921 609.131C321.921 604.466 325.697 600.684 330.355 600.684C335.013 600.684 338.789 604.466 338.789 609.131Z" fill="#FD8F0B"/>
<path d="M153.237 558.447C153.237 563.113 149.461 566.895 144.803 566.895C140.145 566.895 136.369 563.113 136.369 558.447C136.369 553.782 140.145 550 144.803 550C149.461 550 153.237 553.782 153.237 558.447Z" fill="#7F83FC"/>
</g>
<g opacity="0.5" filter="url(#filter1_f_7976_28607)">
<circle cx="1176.12" cy="132.079" r="17.3684" stroke="#7D87F8"/>
<path opacity="0.4" d="M1277.14 39.8096C1277.21 39.6355 1277.45 39.6355 1277.52 39.8096L1288.69 69.9975C1288.71 70.0523 1288.75 70.0954 1288.81 70.1157L1318.99 81.2862C1319.17 81.3507 1319.17 81.5969 1318.99 81.6614L1288.81 92.8319C1288.75 92.8521 1288.71 92.8953 1288.69 92.95L1277.52 123.138C1277.45 123.312 1277.21 123.312 1277.14 123.138L1265.97 92.9501C1265.95 92.8953 1265.91 92.8521 1265.85 92.8319L1235.66 81.6614C1235.49 81.5969 1235.49 81.3507 1235.66 81.2862L1265.85 70.1157C1265.91 70.0954 1265.95 70.0523 1265.97 69.9975L1277.14 39.8096Z" fill="#E8AB26"/>
<path opacity="0.4" d="M1437.39 73.546C1437.46 73.3718 1437.7 73.3718 1437.77 73.546L1444.38 91.4214C1444.4 91.4762 1444.44 91.5193 1444.5 91.5396L1462.37 98.1541C1462.55 98.2186 1462.55 98.4648 1462.37 98.5293L1444.5 105.144C1444.44 105.164 1444.4 105.207 1444.38 105.262L1437.77 123.137C1437.7 123.312 1437.46 123.312 1437.39 123.137L1430.78 105.262C1430.76 105.207 1430.71 105.164 1430.66 105.144L1412.78 98.5293C1412.61 98.4648 1412.61 98.2186 1412.78 98.1541L1430.66 91.5396C1430.71 91.5193 1430.76 91.4762 1430.78 91.4214L1437.39 73.546Z" fill="#7D87FE"/>
<path opacity="0.56" d="M1369.55 385.507C1369.61 385.333 1369.86 385.333 1369.92 385.507L1378.82 409.539C1378.84 409.593 1378.88 409.636 1378.94 409.657L1402.97 418.549C1403.14 418.614 1403.14 418.86 1402.97 418.924L1378.94 427.817C1378.88 427.837 1378.84 427.88 1378.82 427.935L1369.92 451.967C1369.86 452.141 1369.61 452.141 1369.55 451.967L1360.66 427.935C1360.64 427.88 1360.59 427.837 1360.54 427.817L1336.51 418.924C1336.33 418.86 1336.33 418.614 1336.51 418.549L1360.54 409.657C1360.59 409.636 1360.64 409.593 1360.66 409.539L1369.55 385.507Z" fill="#FE8C04"/>
<path d="M1232.19 415.257C1232.26 415.083 1232.5 415.083 1232.57 415.257L1239.18 433.132C1239.2 433.187 1239.25 433.23 1239.3 433.251L1257.18 439.865C1257.35 439.929 1257.35 440.176 1257.18 440.24L1239.3 446.855C1239.25 446.875 1239.2 446.918 1239.18 446.973L1232.57 464.848C1232.5 465.022 1232.26 465.022 1232.19 464.848L1225.58 446.973C1225.56 446.918 1225.52 446.875 1225.46 446.855L1207.59 440.24C1207.41 440.176 1207.41 439.929 1207.59 439.865L1225.46 433.251C1225.52 433.23 1225.56 433.187 1225.58 433.132L1232.19 415.257Z" fill="#7E83FB"/>
<circle opacity="0.4" cx="1220.21" cy="191.724" r="16.8684" fill="#FA9004"/>
<circle cx="1066.47" cy="570.657" r="8.43421" fill="#D9D9D9"/>
<circle cx="1209.85" cy="621.264" r="8.43421" fill="#F49004"/>
<circle cx="1378.54" cy="646.565" r="8.43421" fill="#FE8C04"/>
<circle cx="8.43421" cy="8.43421" r="8.43421" transform="matrix(1 0 0 -1 999 427.277)" fill="#FA9004"/>
<circle cx="1344.8" cy="22.4342" r="8.43421" fill="#7F83FC"/>
</g>
</g>
<defs>
<filter id="filter0_f_7976_28607" x="-225" y="526" width="688.625" height="664.658" filterUnits="userSpaceOnUse" color-interpolation-filters="sRGB">
<feFlood flood-opacity="0" result="BackgroundImageFix"/>
<feBlend mode="normal" in="SourceGraphic" in2="BackgroundImageFix" result="shape"/>
<feGaussianBlur stdDeviation="12" result="effect1_foregroundBlur_7976_28607"/>
</filter>
<filter id="filter1_f_7976_28607" x="975" y="-10" width="688.624" height="689" filterUnits="userSpaceOnUse" color-interpolation-filters="sRGB">
<feFlood flood-opacity="0" result="BackgroundImageFix"/>
<feBlend mode="normal" in="SourceGraphic" in2="BackgroundImageFix" result="shape"/>
<feGaussianBlur stdDeviation="12" result="effect1_foregroundBlur_7976_28607"/>
</filter>
<clipPath id="clip0_7976_28607">
<rect width="1440" height="1180" fill="white"/>
</clipPath>
</defs>
</svg>
